<svg xmlns="http://www.w3.org/2000/svg" width="64" height="64" viewBox="0 0 64 64">
  <rect width="64" height="64" rx="14" fill="#FFFFFF"/>
  <g transform="translate(-6.7,1.53) scale(0.2174)" fill="#050505">
    <path d="M128.364395,202.196167 C125.808189,210.873291 123.164101,219.111099 121.000427,227.473206 C120.014389,231.284012 118.140907,232.498825 114.342072,232.397888 C105.738129,232.169281 97.123940,232.325928 87.492889,232.325928 C89.621643,224.678421 91.398514,217.997055 93.341049,211.364197 C107.506912,162.994400 121.789909,114.658585 135.777817,66.237473 C137.346924,60.805790 139.729630,58.384079 145.450363,58.954880 C149.572708,59.366196 153.779892,59.192448 157.931702,58.962692 C161.537140,58.763172 163.859634,59.925209 165.398987,63.356441 C167.714050,68.516747 170.493240,73.466927 172.954788,78.564545 C173.715622,80.140160 175.010605,81.680443 174.264221,83.670944 C173.949768,83.847290 173.636673,84.182373 173.381729,84.142799 C164.264465,82.727638 161.517609,88.249306 159.597046,95.809196 C156.617065,107.539391 152.844940,119.068344 149.461090,130.505280 C151.620865,132.581802 153.865494,132.479401 155.949631,132.492935 C168.931061,132.577179 181.915009,132.679489 194.893814,132.486526 C198.151474,132.438080 200.060638,133.207672 201.504974,136.282104 C204.880890,143.468109 208.630356,150.478622 212.117416,157.341492 C210.218582,159.854691 208.046402,159.112518 206.176544,159.118439 C186.854233,159.179749 167.529510,159.315536 148.210510,159.056152 C142.925827,158.985214 140.317978,160.298004 138.938980,165.896118 C135.959396,177.992035 132.019638,189.851425 128.364395,202.196167 z"/>
    <path d="M204.000000,73.180771 C197.171310,73.183037 190.837677,73.035683 184.515869,73.245499 C181.029343,73.361214 179.033997,72.044312 177.539352,68.909721 C174.356201,62.233982 170.837830,55.718079 166.961685,48.172802 C201.416595,48.172802 234.528870,48.172802 268.475128,48.172802 C266.154968,56.933796 264.020050,65.084869 261.836609,73.222923 C255.677368,96.179329 249.440765,119.115265 243.386246,142.099213 C242.432541,145.719666 240.871704,147.488449 236.894653,147.270187 C231.580872,146.978577 226.239746,147.186462 220.910355,147.177841 C219.030716,147.174805 217.057373,147.077927 216.113495,145.173660 C212.368103,137.617538 208.154465,130.270081 205.180939,122.422951 C207.632843,120.079575 210.273880,120.844543 212.638611,120.873367 C215.503189,120.908287 216.898270,119.647942 217.600266,117.048203 C221.112396,104.041626 224.625732,91.034973 228.243454,78.057564 C229.229080,74.521919 228.155518,73.099899 224.484543,73.160995 C217.824768,73.271835 211.161697,73.184723 204.000000,73.180771 z"/>
  </g>
</svg>
