<?xml version="1.0" encoding="UTF-8"?>
<svg xmlns="http://www.w3.org/2000/svg" width="564" height="476" viewBox="318 60 564 476">
  <title>Art Piso</title>
  <desc>Logotipo Art Piso: simbolo "P" (haste preta + detalhe vermelho) sobre o wordmark ArtPiso.</desc>

  <g id="simbolo_p" transform="translate(486,70) scale(2.28)">
    <path d="M 18 100 L 34.5 100 L 58.5 4 L 42 4 Z" fill="#050505"/>
    <path d="M 44 35 L 72 35 L 82 48 L 39 48 L 42.5 35 Z" fill="#050505"/>
    <path d="M 63 0 L 100 0 L 88 52 L 70 52 L 75 38 L 83.5 38 L 88 16 L 68 16 Z" fill="#F10B0B"/>
  </g>

  <g id="wordmark">
    <path id="texto_art" fill="#050505" d="M 408.83 481.3 L 384.37 420.53 Q 383.1 417.55 381.9 413.38 Q 381.4 415.43 380.78 417.26 Q 380.2 419.1 379.51 420.61 L 355.05 481.3 L 408.83 481.3 Z M 435.45 525 L 428.73 525 Q 427.53 525 426.76 524.36 Q 426.02 523.73 425.6 522.72 L 411.49 487.76 L 352.42 487.76 L 338.28 522.72 Q 337.97 523.65 337.12 524.34 Q 336.27 525 335.07 525 L 328.43 525 L 377.65 404.73 L 386.23 404.73 L 435.45 525 Z M 459.34 460.82 Q 461.3 455.65 463.8 451.61 Q 466.29 447.57 469.56 444.78 Q 472.86 441.97 476.89 440.48 Q 480.93 438.99 485.84 438.99 Q 488.5 438.99 491.05 439.47 Q 493.6 439.92 495.54 441.12 L 494.88 446.72 Q 494.45 448.07 493.26 448.07 Q 492.22 448.07 490.15 447.49 Q 488.08 446.88 484.68 446.88 Q 479.74 446.88 475.94 448.37 Q 472.16 449.85 469.14 452.83 Q 466.14 455.8 463.88 460.19 Q 461.62 464.57 459.76 470.25 L 459.76 525 L 451.61 525 L 451.61 440.43 L 455.94 440.43 Q 457.37 440.43 457.95 441.04 Q 458.56 441.62 458.75 443.05 L 459.34 460.82 Z M 534.81 526.35 Q 526.23 526.35 521.42 521.6 Q 516.61 516.85 516.61 506.88 L 516.61 449.08 L 504.48 449.08 Q 503.55 449.08 502.93 448.58 Q 502.35 448.07 502.35 447.15 L 502.35 443.98 L 516.8 442.98 L 518.85 412.72 Q 519.01 411.95 519.51 411.37 Q 520.01 410.75 520.97 410.75 L 524.8 410.75 L 524.8 443.05 L 551.46 443.05 L 551.46 449.08 L 524.8 449.08 L 524.8 506.46 Q 524.8 509.97 525.67 512.46 Q 526.58 514.96 528.14 516.58 Q 529.71 518.2 531.83 518.97 Q 533.96 519.74 536.43 519.74 Q 539.48 519.74 541.69 518.84 Q 543.92 517.93 545.51 516.87 Q 547.13 515.81 548.14 514.93 Q 549.18 514.03 549.76 514.03 Q 550.46 514.03 551.15 514.88 L 553.35 518.47 Q 550.11 522.02 545.14 524.2 Q 540.18 526.35 534.81 526.35 Z"/>
    <path id="texto_piso" fill="#F10B0B" d="M 613.44 465 Q 620.06 465 625.1 463.3 Q 630.18 461.6 633.52 458.49 Q 636.9 455.38 638.6 450.97 Q 640.3 446.53 640.3 441.12 Q 640.3 435.75 638.62 431.5 Q 636.98 427.25 633.66 424.27 Q 630.36 421.3 625.29 419.73 Q 620.24 418.17 613.44 418.17 L 595.25 418.17 L 595.25 465 L 613.44 465 Z M 613.44 402.6 Q 625.42 402.6 634.21 405.42 Q 643.01 408.2 648.74 413.28 Q 654.48 418.32 657.3 425.42 Q 660.11 432.51 660.11 441.12 Q 660.11 449.85 657.14 457.13 Q 654.16 464.38 648.29 469.62 Q 642.42 474.85 633.71 477.8 Q 625 480.72 613.44 480.72 L 595.25 480.72 L 595.25 525 L 575.35 525 L 575.35 402.6 L 613.44 402.6 Z M 694.78 438.3 L 694.78 525 L 676.51 525 L 676.51 438.3 L 694.78 438.3 Z M 697.84 412.11 Q 697.84 414.58 696.85 416.81 Q 695.9 419.02 694.2 420.66 Q 692.5 422.31 690.24 423.29 Q 687.98 424.27 685.43 424.27 Q 682.96 424.27 680.78 423.29 Q 678.63 422.31 677.01 420.66 Q 675.39 419.02 674.41 416.81 Q 673.45 414.58 673.45 412.11 Q 673.45 409.56 674.41 407.35 Q 675.39 405.15 677.01 403.5 Q 678.63 401.83 680.78 400.87 Q 682.96 399.89 685.43 399.89 Q 687.98 399.89 690.24 400.87 Q 692.5 401.83 694.2 403.5 Q 695.9 405.15 696.85 407.35 Q 697.84 409.56 697.84 412.11 Z M 769.58 454.02 Q 768.89 455.22 768.04 455.73 Q 767.19 456.23 765.92 456.23 Q 764.48 456.23 762.78 455.35 Q 761.08 454.45 758.77 453.36 Q 756.49 452.25 753.38 451.37 Q 750.3 450.47 746.13 450.47 Q 742.73 450.47 739.96 451.26 Q 737.2 452.06 735.29 453.55 Q 733.38 455.03 732.34 457.05 Q 731.33 459.05 731.33 461.33 Q 731.33 464.38 733.19 466.43 Q 735.08 468.48 738.13 469.96 Q 741.19 471.45 745.09 472.65 Q 749.02 473.84 753.09 475.2 Q 757.18 476.55 761.08 478.33 Q 764.99 480.11 768.04 482.71 Q 771.12 485.32 772.98 489.01 Q 774.84 492.7 774.84 497.96 Q 774.84 504.1 772.64 509.27 Q 770.43 514.45 766.18 518.28 Q 761.93 522.1 755.58 524.23 Q 749.26 526.35 741.11 526.35 Q 736.59 526.35 732.39 525.53 Q 728.2 524.73 724.4 523.35 Q 720.63 521.95 717.33 520.01 Q 714.07 518.04 711.52 515.73 L 715.77 508.77 Q 716.54 507.5 717.68 506.78 Q 718.85 506.03 720.55 506.03 Q 722.33 506.03 724.05 507.2 Q 725.81 508.35 728.14 509.7 Q 730.48 511.05 733.8 512.22 Q 737.12 513.37 742.04 513.37 Q 746.13 513.37 749.1 512.38 Q 752.08 511.4 754.02 509.7 Q 755.98 508 756.91 505.85 Q 757.84 503.67 757.84 501.2 Q 757.84 497.88 755.98 495.75 Q 754.12 493.63 751.01 492.12 Q 747.91 490.57 743.95 489.38 Q 739.99 488.18 735.9 486.83 Q 731.84 485.48 727.88 483.7 Q 723.95 481.92 720.84 479.15 Q 717.73 476.39 715.84 472.43 Q 713.99 468.48 713.99 462.79 Q 713.99 457.58 716.06 452.91 Q 718.16 448.23 722.19 444.68 Q 726.23 441.12 732.13 439.04 Q 738.05 436.95 745.78 436.95 Q 754.55 436.95 761.67 439.76 Q 768.81 442.55 773.67 447.38 L 769.58 454.02 Z M 829.5 436.95 Q 839.11 436.95 846.89 440.11 Q 854.68 443.24 860.15 449.03 Q 865.62 454.8 868.6 463.06 Q 871.57 471.29 871.57 481.57 Q 871.57 491.85 868.6 500.11 Q 865.62 508.35 860.15 514.16 Q 854.68 519.98 846.89 523.14 Q 839.11 526.27 829.5 526.27 Q 819.83 526.27 812.04 523.14 Q 804.26 519.98 798.74 514.16 Q 793.21 508.35 790.24 500.11 Q 787.26 491.85 787.26 481.57 Q 787.26 471.29 790.24 463.06 Q 793.21 454.8 798.74 449.03 Q 804.26 443.24 812.04 440.11 Q 819.83 436.95 829.5 436.95 Z M 829.5 511.98 Q 841.24 511.98 846.97 504.12 Q 852.71 496.26 852.71 481.65 Q 852.71 467.04 846.97 459.1 Q 841.24 451.13 829.5 451.13 Q 817.6 451.13 811.8 459.1 Q 806.04 467.04 806.04 481.65 Q 806.04 496.26 811.8 504.12 Q 817.6 511.98 829.5 511.98 Z"/>
  </g>
</svg>
